<svg xmlns="http://www.w3.org/2000/svg" viewBox="0 0 1000 1000"><defs><style>.cls-1{fill:#212121;}.cls-2{fill:#fff;}</style></defs><g id="Layer_2" data-name="Layer 2"><g id="Layer_1-2" data-name="Layer 1"><circle class="cls-1" cx="500" cy="500" r="500"/><g id="x01wQX.tif"><path class="cls-2" d="M572.72,690.23c4.72,22.52,9.08,43.3,13.53,64.5-1.29.07-3.87.32-6.45.32q-129.4,0-258.83,0c-49.27,0-87.39-30.7-97.74-78.72a104.6,104.6,0,0,1-1.84-21.82q-.16-205.11,0-410.22c0-50.42,30.09-88,78.67-98.45,7.34-1.58,15.08-1.82,22.63-1.83,79.5-.12,159,.13,238.49-.18,31-.12,57,10.21,78.6,32.58,21.3,22,43.12,43.6,65,65.07,20.63,20.25,31.11,44.67,31.19,73.46.14,48.29.05,96.58,0,144.88,0,1.58-.26,3.16-.43,5.18h-64v-128c-10.34,0-20-.34-29.66.06-44.78,1.82-90.17-30.34-98.18-82.77-1.14-7.44-.67-15.14-.79-22.73-.11-7.29,0-14.59,0-23.07h-9.1q-105,0-210,0c-25.46,0-37.95,12.5-37.95,38q0,203.07,0,406.15c0,25.44,12.4,37.67,38.08,37.67H572.72ZM641,271.77l-32.51-33.16C605.14,257.12,620.88,273.2,641,271.77Z"/><path class="cls-2" d="M703.22,530.12c-5.51,0-10.05.23-14.57,0-10.73-.64-17.3-7.09-17.22-16.62s6.66-15.81,17.67-15.88q46.38-.29,92.76,0c11.06.06,17.85,6.23,18.14,15.58.3,9.52-6.88,16.42-17.9,17-4.51.22-9,0-14.34,0,0,11.3-.34,21.57.29,31.77.12,2,3.62,4.8,6.1,5.62,35.29,11.66,61.24,34.1,77.52,67.38,37.44,76.53-11.46,169.81-95.42,182.37C684.87,828,621,782,608.44,711c-10.79-61,27.39-123.85,87-142.67,6-1.9,8.23-4.37,7.87-10.61C702.83,548.86,703.22,540,703.22,530.12Zm32.51,224.1c35.53-.07,64.39-29,64.06-64.18a64.17,64.17,0,1,0-64.06,64.18Z"/><path class="cls-2" d="M430.34,530.16c-19.51,0-39,.07-58.55-.06a39.69,39.69,0,0,1-11.21-1.36c-7-2.13-11.19-9.21-10.53-16.47A15.67,15.67,0,0,1,363.32,498a41.26,41.26,0,0,1,6.48-.43q60.57,0,121.16,0c11.54,0,18.05,4.6,19.4,13.16,1.78,11.27-5.42,19.26-18.22,19.41C471.54,530.33,450.94,530.15,430.34,530.16Z"/><path class="cls-2" d="M414.21,336.93c-15.46,0-30.92.08-46.37,0-10.62-.07-17.75-6.47-17.92-15.76s7-16.54,17.33-16.6q47.19-.3,94.37,0c10.15.07,17.6,7.82,17.24,16.82s-7.47,15.43-17.47,15.51C445.67,337,429.94,336.93,414.21,336.93Z"/><path class="cls-2" d="M414.88,594c15.45,0,30.91-.1,46.37,0,10.08.08,17.13,6.4,17.59,15.36s-6.94,16.89-17.07,17q-47.58.36-95.18,0c-9.87-.08-16.72-7.4-16.66-16.42s7-15.78,16.95-15.88C382.88,593.92,398.88,594,414.88,594Z"/><path class="cls-2" d="M398.28,433.43c-10.31,0-20.62.21-30.92-.05S350.31,427,350,417.87c-.37-9.3,6.46-16.71,17-16.91q31.31-.58,62.63,0c10.43.2,17.43,7.75,17.06,16.9s-7,15.22-17.44,15.51S408.58,433.44,398.28,433.43Z"/><path class="cls-2" d="M718.45,685.57c.78-6.6.79-11.83,2.11-16.7,1.87-6.86,9.54-11.52,16.29-10.86,7.27.72,14.63,6.22,14.15,13.21-.81,11.77,6.44,18,13.39,25.1,3.12,3.19,6.31,7,7.53,11.17,2,6.71-.41,12.84-6.48,17-6.33,4.29-13.1,4.48-18.72-.56-8.85-7.93-17.57-16.15-25.18-25.23C718.72,695.29,719.2,689.16,718.45,685.57Z"/></g></g></g></svg>